<svg fill="none" height="73" viewBox="0 0 104 73" width="104" xmlns="http://www.w3.org/2000/svg"><path d="m88.9729 32.1066c.3051-1.6199.4576-3.2856.4576-4.9971 0-14.9301-12.1437-27.1095-27.0336-27.1095-10.0689 0-18.8869 5.57777-23.5399 13.7992-1.9528-.8099-4.0886-1.2683-6.3465-1.2683-9.1536 0-16.629 7.4879-16.629 16.6722 0 .8863.0763 1.7726.2136 2.6284-9.1994 2.1547-16.0951 10.4373-16.0951 20.3092 0 11.4917 9.33666 20.8593 20.7939 20.8593.5034 0 1.0069-.0153 1.5103-.0611l.0916-.8864v-13.5241c.0763-.3668-.061-2.4145 3.7377-1.9102 3.7987.5195 5.1107 2.8423 5.1107 2.8423.7323.8405 1.9528 3.6829 1.9528 3.6829l9.6265-.0153c2.6851.0917 2.9902-.489 2.9902-.489.717-.9016.9916-.9627.9916-.9627 1.068-.6724 2.6088.4737 2.6088.4737s.0153.5043.0305 1.0391c.0153.5349-.3661 1.5588-.3661 1.5435-.473 2.0783-2.5783 1.8185-2.5783 1.8185l-13.2727.1834c-1.0984 2.827-2.8681 5.1957-3.8597 6.1737l46.1798-.0306s6.0414.107 7.5975.107c11.4572 0 20.7939-9.3676 20.7939-20.8593.061-9.4593-6.3007-17.4974-14.9661-20.0188zm-33.9293 28.7751s-.8696.4585-1.907.0153c.0152 0-8.8027-2.7354-8.8027-2.7354s-1.3883-.3209-1.5714-.7641c0 0-.3204-.2903-.1526-1.085 0 0 .1679-.764.5188-1.574l12.9828 3.9885c-.0305 0 .1373 1.5282-1.0679 2.1547zm4.7293-5.0276-30.1153-9.1078c-1.2815-.3821-2.0138-1.7574-1.6324-3.041l5.5379-18.3532c.3814-1.2836 1.7545-2.0172 3.036-1.6351l44.0898 13.3255-1.2968 2.2922-15.6221 14.5175c-.0153.0153-1.8918 2.5215-3.9971 2.0019zm20.2447-4.1719-.3204 1.085-1.0374 3.0258c-.7323 2.4297-2.7155 1.6657-2.7155 1.6657s-6.0872-2.0783-6.0872-2.0172c-.6255-.4432-.8238-.9475-.8238-.9475l10.1147-9.6885s1.7239-1.5128 2.5325 1.1309c.0153.0458.0305.0916.0458.1222z" fill="#2468ac"/></svg>