<svg fill="none" height="78" viewBox="0 0 114 78" width="114" xmlns="http://www.w3.org/2000/svg"><path d="m81.6032 72.5675c.9068-3.7959-1.4713-7.5998-5.3115-8.4961s-7.6884 1.4543-8.5951 5.2502c-.9068 3.796 1.4712 7.5998 5.3114 8.4962 3.8402.8963 7.6884-1.4543 8.5952-5.2503z" fill="#0074b7"/><path d="m74.5906 75.765h-7.0544c-10.4458 0-18.9472-8.4035-18.9472-18.729v-13.9684c0-10.3255 8.5014-18.729 18.9472-18.729h14.1313c10.4459 0 18.9245 8.4035 18.9245 18.729v16.1587h-5.4715v-16.1587c0-7.3307-6.0369-13.3204-13.4756-13.3204h-14.1313c-7.4161 0-13.4756 5.9674-13.4756 13.3204v13.9684c0 7.3307 6.0369 13.3204 13.4756 13.3204h7.0544v5.4086z" fill="#0074b7"/><path d="m102.311 30.82c-.792-.3352-1.538-.7151-2.307-1.0727 0-.5811-.0675-1.0281.023-1.4304.565-2.7043.316-5.4086-.1809-8.0682-2.0349-10.95128-11.8477-20.583948-25.4364-20.2263546-8.5239.2234956-15.3296 4.0676246-20.2134 11.0630546-.4748.6928-1.0174 1.3633-1.4922 2.0114-11.2372-4.98391-23.311 2.9278-21.864 16.3823-1.1531.4693-2.374.9163-3.5723 1.4303-8.6823 3.7995-13.1365 13.4545-11.1242 22.0367 2.0349 8.694 9.8354 15.086 18.9699 15.1083 19.8742.0447 39.7484.0224 59.6227 0 1.0853 0 2.2158-.0223 3.2785-.2235 8.4333-1.6315 14.7873-8.4034 15.8273-16.6057 1.266-10.2137-5.042-17.7009-11.531-20.4052z" fill="#0074b7"/><g fill="#fff"><path d="m47.2324 57.3489h1.5148c1.8993 0 3.4368-1.5198 3.4368-3.3972v-10.549c0-1.8773-1.5375-3.3971-3.4368-3.3971h-1.5148c-2.0575 0-3.7307 1.6539-3.7307 3.6877v9.9456c0 2.0561 1.6732 3.71 3.7307 3.71z"/><path d="m101.203 57.3489h-1.5152c-1.8992 0-3.4367-1.5198-3.4367-3.3972v-10.549c0-1.8773 1.5375-3.3971 3.4367-3.3971h1.5152c2.057 0 3.73 1.6539 3.73 3.6877v9.9456c.023 2.0561-1.65 3.71-3.73 3.71z"/><path d="m79.5813 71.6909c.6973-2.9191-1.1313-5.8442-4.0844-6.5334-2.953-.6893-5.9123 1.1183-6.6096 4.0373-.6973 2.9191 1.1314 5.8442 4.0845 6.5335 2.953.6892 5.9122-1.1184 6.6095-4.0374z"/><path d="m79.5813 71.6909c.6973-2.9191-1.1313-5.8442-4.0844-6.5334-2.953-.6893-5.9123 1.1183-6.6096 4.0373-.6973 2.9191 1.1314 5.8442 4.0845 6.5335 2.953.6892 5.9122-1.1184 6.6095-4.0374z"/><path d="m74.2288 72.9936h-6.6926c-9.8806 0-17.9298-7.9564-17.9298-17.7232v-13.2086c0-9.7667 8.0492-17.7232 17.9298-17.7232h13.3626c9.8806 0 17.9298 7.9565 17.9298 17.7232v15.2871h-5.1777v-15.2871c0-6.9507-5.7204-12.6051-12.7521-12.6051h-13.3626c-7.0317 0-12.752 5.6544-12.752 12.6051v13.2086c0 6.9507 5.7203 12.6052 12.752 12.6052h6.6926z"/></g><path d="m69.7886 51.5968c2.1456-2.1209 2.1456-5.5595 0-7.6804s-5.6243-2.1209-7.77 0c-2.1456 2.1209-2.1456 5.5595.0001 7.6804 2.1456 2.1209 5.6243 2.1209 7.7699 0z" fill="#00c6ff"/><path d="m86.4319 51.6027c2.1456-2.1209 2.1456-5.5596 0-7.6805s-5.6243-2.1209-7.7699 0c-2.1457 2.1209-2.1457 5.5596 0 7.6805 2.1456 2.1209 5.6243 2.1209 7.7699 0z" fill="#00c6ff"/><path d="m21.1177 47.761c0 2.4138-1.967 4.3582-4.4089 4.3582s-4.409-1.9444-4.409-4.3582 1.9671-4.3582 4.409-4.3582 4.4089 1.9668 4.4089 4.3582z" fill="#4fc5ff"/><path d="m37.5629 49.0144c.6973-2.9191-1.1313-5.8442-4.0844-6.5335-2.9531-.6892-5.9123 1.1184-6.6096 4.0374-.6973 2.9191 1.1314 5.8442 4.0844 6.5334 2.9531.6893 5.9123-1.1183 6.6096-4.0373z" fill="#4fc5ff"/><path d="m7.05434 47.7609c0 1.9221-1.5827 3.4866-3.52717 3.4866-1.94446 0-3.52717-1.5645-3.52717-3.4866 0-1.922 1.58271-3.4865 3.52717-3.4865 1.94447 0 3.52717 1.5645 3.52717 3.4865z" fill="#b3eeff"/></svg>