<svg width="364" height="59" viewBox="0 0 364 59" fill="none" xmlns="http://www.w3.org/2000/svg">
<g clip-path="url(#clip0)">
<path d="M69.4626 21.526H61.3985C56.6879 21.526 52.2965 23.5686 49.1827 27.0253L36.408 41.5593V58.2144C40.5598 57.6645 42.7155 54.9148 42.7155 54.9148L70.261 23.3329C70.8997 22.6258 70.4207 21.526 69.4626 21.526Z" fill="#E10600"/>
<path d="M1.11779 21.526H9.18184C13.8925 21.526 18.2838 23.5686 21.3977 27.0253L34.1724 41.5593V58.2144C30.0206 57.6645 27.8649 54.9148 27.8649 54.9148L0.319366 23.3329C-0.31937 22.6258 0.159682 21.526 1.11779 21.526Z" fill="#E10600"/>
<path d="M51.578 1.09987V17.2836C51.578 19.5619 50.6997 21.8402 49.1827 23.5686L36.408 38.1811V15.5553L49.6618 0.392811C50.3005 -0.392808 51.578 0.0785635 51.578 1.09987Z" fill="#E10600"/>
<path d="M18.9226 1.09987V17.2836C18.9226 19.5619 19.8008 21.8402 21.3178 23.5686L34.1724 38.1811V15.5553L20.9186 0.392811C20.2 -0.392808 18.9226 0.0785635 18.9226 1.09987Z" fill="#E10600"/>
<path d="M258.449 31.9747H254.297C251.902 31.9747 249.586 32.996 247.989 34.8029L241.363 42.3449V50.9867C243.518 50.6724 244.636 49.2583 244.636 49.2583L258.928 32.9174C259.167 32.6032 258.928 31.9747 258.449 31.9747Z" fill="#E10600"/>
<path d="M248.389 45.5659L246.473 47.6871C245.275 48.9441 245.275 50.9081 246.393 52.2437C248.389 54.6005 251.423 58.2929 251.423 58.2929H259.008L248.389 45.5659Z" fill="#00B74F"/>
<path d="M92.1378 58.2929L79.6025 21.526H87.5868L96.6888 49.8083L105.791 21.526H113.855L101.24 58.2929H92.1378Z" fill="#00B74F"/>
<path d="M131.101 21.526C134.694 21.526 137.728 22.7044 140.203 25.0613C142.678 27.4181 143.875 30.4035 143.875 33.8602C143.875 37.3169 142.678 40.3023 140.203 42.6591C137.728 45.016 134.694 46.1944 131.101 46.1944H124.554V58.2929H117.208V21.526H131.101ZM131.101 39.4381C134.215 39.4381 136.53 37.0027 136.53 33.8602C136.53 30.6392 134.215 28.2823 131.101 28.2823H124.554V39.4381H131.101Z" fill="#00B74F"/>
<path d="M174.854 47.6085C174.854 50.6724 173.736 53.265 171.501 55.3076C169.265 57.2716 166.471 58.2929 163.197 58.2929H147.309V21.526H162.079C165.273 21.526 167.988 22.5473 170.143 24.4328C172.299 26.3968 173.417 28.8322 173.417 31.8176C173.417 34.8815 172.219 37.3169 169.904 39.2024C173.177 41.0879 174.854 43.9161 174.854 47.6085ZM154.734 28.2823V36.3742H162.079C164.395 36.3742 166.071 34.6458 166.071 32.3675C166.071 30.0892 164.395 28.3609 162.079 28.3609H154.734V28.2823ZM163.197 51.5366C165.672 51.5366 167.509 49.7297 167.509 47.2157C167.509 44.7803 165.672 42.8948 163.197 42.8948H154.734V51.5366H163.197Z" fill="#00B74F"/>
<path d="M229.306 34.1744C231.223 36.1385 232.181 38.731 232.181 42.1877V58.2929H225.314V43.0519C225.314 39.5166 223.238 37.6312 220.045 37.6312C216.452 37.6312 214.136 39.7523 214.136 44.1518V58.3715H207.27V32.0533H214.136V34.96C215.813 32.5246 218.448 31.2676 222.121 31.2676C224.995 31.2676 227.39 32.2104 229.306 34.1744Z" fill="#00B74F"/>
<path d="M241.283 43.6019V58.2929H234.416V21.526H241.283V43.6019Z" fill="#00B74F"/>
<path d="M198.088 32.0533V35.1172C196.012 32.5246 193.138 31.2676 189.385 31.2676C185.792 31.2676 182.758 32.6032 180.204 35.2743C177.728 37.9454 176.451 41.245 176.451 45.0945C176.451 48.9441 177.728 52.3222 180.204 54.9933C182.758 57.6644 185.792 59 189.385 59C193.138 59 196.012 57.743 198.088 55.1505V58.2144H204.955V32.0533H198.088ZM190.583 52.715C186.272 52.715 182.838 49.3369 182.838 45.0945C182.838 40.8522 186.272 37.474 190.583 37.474C194.895 37.474 198.328 40.8522 198.328 45.0945C198.328 49.3369 194.895 52.715 190.583 52.715Z" fill="#00B74F"/>
<path d="M268.03 49.5726L274.098 46.1159C275.455 49.7297 278.25 51.5366 282.401 51.5366C286.394 51.5366 288.15 49.9654 288.15 47.7657C288.15 46.5087 287.591 45.5659 286.473 44.8589C285.356 44.1518 283.36 43.3662 280.405 42.5806C277.132 41.6378 275.216 40.8522 272.98 39.281C270.744 37.6312 269.627 35.1958 269.627 31.9747C269.627 28.7537 270.744 26.2397 273.06 24.3542C275.375 22.4687 278.17 21.4474 281.443 21.4474C287.272 21.4474 291.823 24.3542 294.298 29.3822L288.31 32.7603C286.873 29.6964 284.557 28.2037 281.443 28.2037C278.489 28.2037 276.733 29.6964 276.733 31.739C276.733 32.8389 277.212 33.7816 278.09 34.4887C279.048 35.1172 280.884 35.9028 283.519 36.6884L285.994 37.4741C286.553 37.6312 287.352 37.9454 288.31 38.3382C289.268 38.731 290.066 39.0453 290.545 39.4381C291.663 40.0666 293.26 41.3236 293.979 42.5806C294.777 43.759 295.336 45.5659 295.336 47.6085C295.336 50.9081 294.138 53.5007 291.663 55.3862C289.268 57.2717 286.074 58.293 282.242 58.293C275.056 58.293 270.106 54.9934 268.03 49.5726Z" fill="#00B74F"/>
<path d="M335.736 21.4474V58.2929H328.39V34.4101L317.851 51.5366H316.973L306.434 34.4887V58.2929H299.088V21.4474H306.673L317.452 38.8882L328.151 21.4474H335.736Z" fill="#00B74F"/>
<path d="M348.191 51.3795H364V58.2929H340.846V21.4474H363.76V28.3609H348.271V36.2171H362.403V43.0519H348.271V51.3795H348.191Z" fill="#00B74F"/>
</g>
<defs>
<clipPath id="clip0">
<rect width="364" height="59" fill="white"/>
</clipPath>
</defs>
</svg>
