<svg fill="none" height="80" viewBox="0 0 84 80" width="84" xmlns="http://www.w3.org/2000/svg"><g fill="#0074b7"><path d="m58.5414 4.87633c-3.7501-2.58084-8.145-3.945178-12.7098-3.945178-8.4699 0-16.1299 4.690018-19.9911 12.239748-.6231 1.219-1.7433 1.0658-2.8361 1.0658-6.7505 0-12.7551 4.2897-14.94171 10.6745-.19327.5645-.66626 1.0155-1.29724 1.2373-4.2144 1.4813-6.93027 5.4806-6.75767792 9.9518.21016292 5.4572 4.82782792 9.7241 10.31422792 9.7241h3.6958v4.448h-3.5989c-.5143-1.5168-1.95065-2.6119-3.63901-2.6119-2.11868 0-3.84248 1.7237-3.84248 3.8424 0 2.1188 1.7238 3.8424 3.84248 3.8424 1.68836 0 3.12488-1.0951 3.63901-2.612h4.8293c.6797 0 1.2305-.5509 1.2305-1.2304v-5.6785h11.1225v16.4264h-7.3768c-.5339-1.8314-2.2267-3.1739-4.2282-3.1739-2.4288 0-4.4046 1.9758-4.4046 4.4044s1.9758 4.4044 4.4046 4.4044c2.0015 0 3.6943-1.3425 4.2282-3.1739h8.6073c.6797 0 1.2305-.551 1.2305-1.2305v-17.6569h11.1057v22.9267c-2.2934.555-4.0022 2.6237-4.0022 5.0851 0 2.8853 2.3474 5.2327 5.2327 5.2327 2.8854 0 5.2327-2.3474 5.2327-5.2327 0-2.4616-1.7088-4.5302-4.0022-5.0851v-22.9267h2.6819c.6797 0 1.2304-.551 1.2304-1.2305s-.5507-1.2305-1.2304-1.2305h-35.9888c-4.17489 0-7.69893-3.3007-7.85528-7.3579-.13059-3.3859 1.92477-6.414 5.11494-7.5352 1.34645-.4733 2.37036-1.48 2.80934-2.7618 1.8459-5.3897 6.9147-9.0109 12.6136-9.0109.8444 0 3.6341.3186 5.0273-2.4061 3.4382-6.72309 10.2586-10.89943 17.7998-10.89943 4.0641 0 7.9767 1.21422 11.3147 3.5114.5599.38538 1.3259.2438 1.7111-.31598.3851-.55978.2437-1.32594-.3161-1.71116zm-51.76151 48.00807c-.7619 0-1.38156-.6198-1.38156-1.3815 0-.7618.61966-1.3814 1.38156-1.3814.76174 0 1.3814.6196 1.3814 1.3814 0 .7617-.61983 1.3815-1.3814 1.3815zm9.21631 12.5404c-1.0717 0-1.9436-.8719-1.9436-1.9435 0-1.0717.8718-1.9435 1.9436-1.9435 1.0715 0 1.9435.8718 1.9435 1.9435 0 1.0716-.8719 1.9435-1.9435 1.9435zm29.174 8.4115c0 1.5284-1.2434 2.7719-2.7718 2.7719-1.5282 0-2.7718-1.2435-2.7718-2.7719s1.2434-2.7718 2.7718-2.7718 2.7718 1.2434 2.7718 2.7718z"/><path d="m67.6248 43.3637h-15.5718c-.6797 0-1.2305.5509-1.2305 1.2304 0 .6796.5508 1.2305 1.2305 1.2305h2.682v17.6569c0 .6795.5508 1.2305 1.2305 1.2305h8.6071c.5339 1.8314 2.2267 3.1739 4.2284 3.1739 2.4286 0 4.4044-1.9758 4.4044-4.4044s-1.9758-4.4044-4.4044-4.4044c-2.0016 0-3.6945 1.3425-4.2284 3.1739h-7.3766v-16.4264h10.4288c.2584 0 .5163-.0068.7737-.0192v5.6977c0 .6795.5508 1.2304 1.2305 1.2304h4.8291c.5144 1.5169 1.9509 2.612 3.6393 2.612 2.1186 0 3.8424-1.7236 3.8424-3.8424 0-2.1187-1.7238-3.8424-3.8424-3.8424-1.6884 0-3.1249 1.0952-3.6393 2.6119h-3.5986v-4.7755c7.4872-1.5228 13.2899-8.1041 13.1375-16.0677-.1718-8.971-7.6585-16.0852-16.6409-15.7582-.7376.0272-1.4536-.3818-1.8137-1.0405-.7046-1.2895-1.5417-2.517-2.4883-3.6482-.4361-.52139-1.2123-.5903-1.7332-.15406-.5212.43608-.5902 1.21206-.154 1.73316.8431 1.0078 1.5888 2.1008 2.216 3.2491.7776 1.4235 2.2988 2.3227 3.9073 2.3227.0513 0 .103-.001.1547-.0028 7.5916-.2746 13.9458 5.7363 14.0915 13.3461.1473 7.6856-6.3239 13.887-13.9116 13.887zm1.176 18.1743c1.0715 0 1.9435.8719 1.9435 1.9435 0 1.0717-.8718 1.9435-1.9435 1.9435-1.0716 0-1.9436-.8718-1.9436-1.9435 0-1.0716.872-1.9435 1.9436-1.9435zm9.2966-11.4165c.7619 0 1.3815.6197 1.3815 1.3814s-.6196 1.3816-1.3815 1.3816-1.3816-.6199-1.3816-1.3816.6197-1.3814 1.3816-1.3814z"/></g></svg>