<svg xmlns="http://www.w3.org/2000/svg" viewBox="0 0 241.68 33.72"><defs><style>.cls-1{fill:#f26f24;}.cls-2{fill:#3850a1;}</style></defs><title>vngcloud</title><g id="Layer_2" data-name="Layer 2"><g id="Layer_1-2" data-name="Layer 1"><path class="cls-1" d="M24.62,15.35a18,18,0,0,1-3.95,11.36,19.36,19.36,0,0,1-3.26,3.06A20.31,20.31,0,0,1,9,33.34a44.42,44.42,0,0,1-7.22.38H0V0H6.37V27.27a9.56,9.56,0,0,0,3.85-.65,12.51,12.51,0,0,0,5.55-4.12c1.39-2,2.38-3.59,2.48-7.76V0h6.37Z"/><path class="cls-1" d="M53,33.72H46.65V10a3.51,3.51,0,0,0-1.07-2.57A3.6,3.6,0,0,0,43,6.37H34.76V33.72H28.4V0H43a9.73,9.73,0,0,1,7.13,2.94A9.66,9.66,0,0,1,53,10Z"/><path class="cls-1" d="M81.42,23.71a10.06,10.06,0,0,1-10.07,10H66.8a10,10,0,0,1-10-10V10a9.66,9.66,0,0,1,2.94-7.07A9.66,9.66,0,0,1,66.8,0H77.62V6.37H66.8A3.65,3.65,0,0,0,63.16,10v13.7a3.67,3.67,0,0,0,3.64,3.65h4.55A3.57,3.57,0,0,0,74,26.28a3.5,3.5,0,0,0,1.07-2.57V20.07H67V13.7H81.42Z"/><path class="cls-2" d="M160.64,28.09a11.24,11.24,0,1,1,10.64-10.64,11.25,11.25,0,0,1-10.64,10.64M160.6,0a16.86,16.86,0,1,0,16.3,16.3A16.85,16.85,0,0,0,160.6,0"/><path class="cls-2" d="M111.1,27.25a11.24,11.24,0,1,1,0-20.76,6.93,6.93,0,0,0,7.57-1.55,16.86,16.86,0,1,0,0,23.84l-.12-.12a6.83,6.83,0,0,0-7.49-1.41"/><path class="cls-2" d="M128.71,25V5.62A5.62,5.62,0,0,0,123.09,0V25.29a8.43,8.43,0,0,0,8.44,8.43h14A5.62,5.62,0,0,0,140,28.1h-8.1A3.14,3.14,0,0,1,128.71,25"/><path class="cls-2" d="M203.23,5.63v14a8.43,8.43,0,1,1-16.86,0v-14A5.62,5.62,0,0,0,180.75,0V19.67a14.05,14.05,0,1,0,28.1,0V0a5.62,5.62,0,0,0-5.62,5.62"/><path class="cls-2" d="M241.67,16.09A17,17,0,0,0,224.58,0h-11V28.1a5.62,5.62,0,0,0,5.62-5.62V5.62h5.64a11.24,11.24,0,0,1,0,22.48h-1.39a5.62,5.62,0,0,0-5.62,5.62h7a16.87,16.87,0,0,0,16.85-17.63"/></g></g></svg>