<svg fill="none" height="455" viewBox="0 0 1916 455" width="1916" xmlns="http://www.w3.org/2000/svg" xmlns:xlink="http://www.w3.org/1999/xlink"><linearGradient id="a"><stop offset=".00000027" stop-color="#fff"/><stop offset="1" stop-color="#d6dcdf"/></linearGradient><linearGradient id="b" gradientUnits="userSpaceOnUse" x1="114.359" x2="114.359" xlink:href="#a" y1="418.271" y2="31.3697"/><linearGradient id="c" gradientUnits="userSpaceOnUse" x1="73.8746" x2="73.8746" xlink:href="#a" y1="432.535" y2="182.6"/><linearGradient id="d" gradientUnits="userSpaceOnUse" x1="393.954" x2="393.954" xlink:href="#a" y1="420.415" y2="58.2278"/><linearGradient id="e" gradientUnits="userSpaceOnUse" x1="393.951" x2="393.951" xlink:href="#a" y1="434.117" y2="221.78"/><linearGradient id="f" gradientUnits="userSpaceOnUse" x1="1801.64" x2="1801.64" xlink:href="#a" y1="404.271" y2="17.3697"/><linearGradient id="g" gradientUnits="userSpaceOnUse" x1="1842.13" x2="1842.13" xlink:href="#a" y1="418.535" y2="168.6"/><linearGradient id="h" gradientUnits="userSpaceOnUse" x1="1522.05" x2="1522.05" xlink:href="#a" y1="406.415" y2="44.2278"/><linearGradient id="i" gradientUnits="userSpaceOnUse" x1="1522.05" x2="1522.05" xlink:href="#a" y1="420.117" y2="207.78"/><g opacity=".43"><path d="m228.652 38.1554v415.0496l-228.652-6.366v-432.839z" fill="url(#b)" opacity=".43"/><path d="m147.749 187.005v267.995l-147.749-4.08v-279.583z" fill="url(#c)" opacity=".43"/><path d="m289.942 43.8679 208.058 22.0337v387.6294l-208.058-5.876z" fill="url(#d)" opacity=".43"/><path d="m332.926 213.282 122.089 13.057v227.192l-122.089-3.427z" fill="url(#e)" opacity=".43"/></g><g opacity=".43"><path d="m1687.35 24.1554v415.0496l228.65-6.366v-432.839z" fill="url(#f)" opacity=".43"/><path d="m1768.25 173.005v267.995l147.75-4.08v-279.583z" fill="url(#g)" opacity=".43"/><path d="m1626.06 29.8679-208.06 22.0337v387.6294l208.06-5.876z" fill="url(#h)" opacity=".43"/><path d="m1583.07 199.282-122.09 13.057v227.192l122.09-3.427z" fill="url(#i)" opacity=".43"/></g></svg>