<svg width="714" height="556" viewBox="0 0 714 556" fill="none" xmlns="http://www.w3.org/2000/svg">
<path d="M647.125 262.022C662.985 262.022 663.879 238.13 648.019 237.359C647.581 237.342 647.143 237.324 646.704 237.324C643.883 237.324 641.149 237.78 638.59 238.586C636.47 225.65 625.253 215.799 611.724 215.799C597.896 215.799 586.487 226.106 584.735 239.445C581.457 237.868 577.777 236.991 573.904 236.991C571.731 236.991 569.628 237.272 567.63 237.78C553.75 241.356 556.659 262.005 570.995 262.005H647.125V262.022Z" fill="#AFDDFD"/>
<path d="M356.991 556C554.152 556 713.982 546.002 713.982 533.668C713.982 521.335 554.152 511.336 356.991 511.336C159.83 511.336 0 521.335 0 533.668C0 546.002 159.83 556 356.991 556Z" fill="#E6F5FF"/>
<path d="M236.961 541.802C271.699 541.802 299.859 539.793 299.859 537.314C299.859 534.836 271.699 532.827 236.961 532.827C202.223 532.827 174.062 534.836 174.062 537.314C174.062 539.793 202.223 541.802 236.961 541.802Z" fill="#D4ECFF"/>
<path d="M567.787 213.748H170.277C161.952 213.748 155.223 220.496 155.223 228.805V502.624C155.223 510.951 161.97 517.682 170.277 517.682H567.787C576.111 517.682 582.841 510.933 582.841 502.624V228.805C582.841 220.496 576.111 213.748 567.787 213.748Z" fill="#275CAB"/>
<path d="M188.24 495.21V236.22C188.24 234.677 189.502 233.415 191.044 233.415H522.939C524.482 233.415 525.743 234.677 525.743 236.22V495.227C525.743 496.77 524.482 498.032 522.939 498.032H191.044C189.502 498.014 188.24 496.77 188.24 495.21Z" fill="#D4ECFF"/>
<path d="M523.237 233.415H190.764C189.379 233.415 188.24 234.537 188.24 235.939V243.144H511.565C512.95 243.144 514.089 244.266 514.089 245.668V498.032H523.237C524.622 498.032 525.761 496.91 525.761 495.508V235.922C525.761 234.537 524.622 233.415 523.237 233.415Z" fill="#AFDDFD"/>
<path d="M567.769 365.724C567.769 358.116 561.6 351.963 554.011 351.963C546.405 351.963 540.254 358.133 540.254 365.724C540.254 373.331 546.423 379.484 554.011 379.484C561.617 379.484 567.769 373.314 567.769 365.724Z" fill="white"/>
<path d="M190.764 498.014H369.645C359.638 505.341 351.822 511.915 340.728 517.682H168.752C161.286 517.682 155.223 511.617 155.223 504.149V227.263C155.223 219.795 161.286 213.748 168.752 213.748H458.306C460.689 220.181 462.792 226.737 464.633 233.415H190.764C189.362 233.415 188.24 234.537 188.24 235.939V495.508C188.24 496.892 189.362 498.014 190.764 498.014Z" fill="#366DBF"/>
<path d="M260 85H257V173H260V85Z" fill="#6A99DE"/>
<path d="M492 85H489V194H492V85Z" fill="#6A99DE"/>
<path d="M491.534 177.866L251.524 149.837C241.272 148.645 231.983 155.99 230.792 166.244L212.881 319.745C211.689 330 219.032 339.29 229.284 340.482L469.294 368.493C479.546 369.685 488.835 362.34 490.026 352.086L507.937 198.585C509.147 188.348 501.803 179.058 491.534 177.866Z" fill="white"/>
<path d="M506.167 213.8L507.937 198.603C509.129 188.348 501.786 179.058 491.534 177.866L251.524 149.837C241.272 148.645 231.983 155.99 230.792 166.244L229.021 181.442L506.167 213.8Z" fill="#275CAB"/>
<path d="M257.308 171.047C256.992 173.799 254.486 175.78 251.735 175.465C248.983 175.149 247.003 172.642 247.318 169.89C247.634 167.138 250.14 165.158 252.891 165.473C255.66 165.806 257.641 168.295 257.308 171.047Z" fill="white"/>
<path d="M281.388 173.869C281.072 176.621 278.566 178.602 275.815 178.287C273.063 177.971 271.083 175.465 271.398 172.713C271.714 169.961 274.22 167.98 276.971 168.295C279.74 168.611 281.703 171.117 281.388 173.869Z" fill="#D4ECFF"/>
<path d="M306.343 176.779C306.027 179.531 303.521 181.512 300.77 181.196C298.018 180.881 296.038 178.374 296.353 175.622C296.669 172.87 299.175 170.89 301.926 171.205C304.695 171.521 306.658 174.027 306.343 176.779Z" fill="#C9515B"/>
<path d="M209.795 401.272C209.795 401.272 206.553 415.646 207.096 430.353C207.587 443.517 206.01 530.022 206.01 530.022H216.578C216.578 530.022 231.614 462.273 232.175 456.927C232.736 451.58 240.307 398.064 240.307 398.064L209.795 401.272Z" fill="#0B3E8A"/>
<path d="M216.807 397.328C216.807 397.328 219.243 415.804 223.379 428.95C227.515 442.08 247.826 530.022 247.826 530.022H258.394C258.394 530.022 256.449 462.273 255.713 456.927C254.977 451.58 249.632 398.064 249.632 398.064L216.807 397.328Z" fill="#164FA6"/>
<path d="M248.684 529.987V537.367H268.785C269.924 537.367 270.38 535.894 269.416 535.246C266.472 533.283 261.757 530.583 257.394 529.987H248.684Z" fill="#0B3E8A"/>
<path d="M206.553 529.987V537.367H226.654C227.793 537.367 228.249 535.894 227.285 535.246C224.341 533.283 219.627 530.583 215.263 529.987H206.553Z" fill="#0B3E8A"/>
<path d="M244.953 301.428H244.97C244.953 301.41 244.935 301.392 244.918 301.375C244.848 301.27 244.742 301.182 244.655 301.077C244.55 300.954 244.427 300.849 244.287 300.744C244.182 300.656 244.076 300.586 243.954 300.516C243.779 300.411 243.586 300.323 243.375 300.236C243.253 300.183 243.148 300.13 243.025 300.095C242.657 299.973 242.271 299.885 241.816 299.815C235.717 299.026 233.211 300.849 233.211 300.849C233.211 300.849 226.183 300.078 222.345 303.408C219.716 305.687 210.042 323.391 225.675 329.789C226.148 329.982 226.604 330.157 227.042 330.315C227.182 330.368 227.322 330.403 227.462 330.455C227.743 330.543 228.041 330.648 228.321 330.718C228.479 330.771 228.637 330.806 228.794 330.841C229.022 330.894 229.268 330.964 229.495 331.016C229.653 331.051 229.811 331.069 229.969 331.104C230.179 331.139 230.389 331.174 230.582 331.209C230.74 331.227 230.88 331.244 231.02 331.244C231.213 331.262 231.388 331.279 231.563 331.279C231.704 331.279 231.844 331.279 231.984 331.279C232.142 331.279 232.317 331.279 232.475 331.262C232.615 331.262 232.738 331.244 232.86 331.227C233 331.209 233.158 331.192 233.281 331.174C233.404 331.157 233.526 331.122 233.631 331.104C233.772 331.069 233.894 331.034 234.017 330.999C234.122 330.964 234.245 330.929 234.35 330.894C234.473 330.859 234.578 330.806 234.683 330.753C234.788 330.701 234.876 330.666 234.981 330.613C235.086 330.561 235.174 330.508 235.279 330.438C235.366 330.385 235.454 330.333 235.542 330.263C235.629 330.193 235.717 330.122 235.805 330.052C235.892 329.982 235.962 329.912 236.05 329.842C236.12 329.772 236.208 329.702 236.278 329.614C236.348 329.544 236.418 329.456 236.488 329.386C236.558 329.316 236.611 329.228 236.681 329.141C236.751 329.053 236.803 328.965 236.874 328.878C236.926 328.79 236.979 328.72 237.031 328.632C237.084 328.545 237.154 328.44 237.207 328.352C237.242 328.282 237.277 328.194 237.312 328.124C238.977 324.724 237.978 319.815 237.978 319.815L242.85 311.366C242.832 311.349 247.231 304.653 244.953 301.428Z" fill="#0B3E8A"/>
<path d="M233.089 316.467C233.089 316.467 231.039 314.416 229.496 316.467C227.954 318.518 228.988 323.128 231.547 323.391C231.547 323.391 230.776 330.052 225.658 329.789V335.171H237.698V331.069C237.698 331.069 245.129 328.001 244.866 321.849C244.603 315.696 242.816 311.349 242.816 311.349C242.816 311.349 238.732 315.959 233.089 316.467Z" fill="#EDBC9C"/>
<path d="M234.946 332.787C236.137 333.277 235.927 334.031 235.98 335.171H237.715V331.069C237.715 331.069 234.806 331.998 230.529 329.561C230.512 329.561 233 331.98 234.946 332.787Z" fill="#DD9F80"/>
<path d="M237.399 306.669C237.399 306.669 231.16 304.179 230.424 306.055C229.951 307.282 231.16 308.334 232.825 309.386L231.353 309.631C231.02 309.684 230.915 310.104 231.16 310.315C231.563 310.648 232.702 310.876 235.068 310.946L237.399 306.669Z" fill="#EDBC9C"/>
<path d="M281.965 322.287C270.065 313.47 237.573 306.423 237.573 306.423L234.892 311.296C234.892 311.296 264.404 322.725 262.441 324.443C261.302 325.442 246.879 332.05 242.007 334.277C240.955 334.75 239.816 334.978 238.66 334.96L223.728 334.873C223.728 334.873 212.95 333.593 204.468 343.339C196.879 352.068 183.998 372.262 183.998 372.262L205.694 404.182L208.095 407.705L208.113 407.67L208.095 407.968C208.095 407.968 208.866 408.056 210.233 408.179C217.209 408.827 239.571 410.598 251.4 408.091L251.733 408.021L251.173 355.644C270.065 340.675 279.09 329.123 282.315 325.495C283.156 324.548 282.999 323.076 281.965 322.287ZM209.129 393.717L207.009 389.09L200.262 374.348L211.443 361.815L209.427 389.318L209.129 393.717Z" fill="#81C4EF"/>
<path d="M207.025 389.09L209.128 393.717L208.112 407.688L208.094 407.723L205.693 404.2L207.025 389.09Z" fill="#60B1E6"/>
<path d="M246.126 353.769C244.11 355.224 244.619 368.178 244.128 376.276C243.304 389.843 242.481 401.57 243.076 409.143C246.143 408.932 248.982 408.617 251.401 408.091L251.734 408.021L251.173 355.644C270.065 340.675 279.091 329.123 282.316 325.495C283.157 324.53 282.999 323.058 281.965 322.287C281.965 322.287 267.034 338.589 246.126 353.769Z" fill="#60B1E6"/>
<path d="M255.712 456.909C255.186 453.053 252.259 424.112 250.665 408.301L243.076 409.143C243.076 409.143 254.152 500.206 254.871 530.005H258.376C258.393 530.005 256.448 462.255 255.712 456.909Z" fill="#0B3E8A"/>
<path d="M134.997 504.377C134.997 504.377 131.737 501.327 133.928 489.793C136.119 478.259 141.657 467.181 138.94 454.665C136.224 442.15 114.895 410.58 114.825 408.494C114.755 406.391 108.253 445.217 119.277 460.502C130.3 475.788 131.632 481.099 131.141 489.145C130.651 497.19 131.246 503.659 132.473 505.534L134.997 504.377Z" fill="#5C87C7"/>
<path d="M132.963 481.169C131.684 486.323 130.912 499.224 132.963 502.309C133.156 502.59 133.436 502.432 133.769 501.906C133.138 499.767 132.735 496.034 133.909 489.793C136.1 478.259 141.638 467.181 138.921 454.665C136.205 442.15 114.877 410.58 114.807 408.494C114.807 408.494 118.014 434.788 128.844 452.895C136.591 465.831 134.26 476.016 132.963 481.169Z" fill="#6A99DE"/>
<path d="M138.87 503.571C138.87 503.571 132.614 487.935 143.217 474.385C153.837 460.835 170.819 443.447 171.152 436.558C171.152 436.558 175.516 469.267 161.688 478.54C147.861 487.795 138.169 489.285 140.57 503.518L138.87 503.571Z" fill="#5C87C7"/>
<path d="M153.802 471.949C138.398 483.167 137.136 496.086 139.519 502.081C139.712 502.554 140.063 502.835 140.518 502.993C138.45 489.232 148.072 487.672 161.706 478.54C175.534 469.284 171.17 436.558 171.17 436.558C171.17 436.558 169.207 460.73 153.802 471.949Z" fill="#6A99DE"/>
<path d="M128.583 503.922C128.583 503.922 130.599 495.63 129.53 486.691C128.461 477.751 119.12 472.72 110.392 463.272C105.906 458.416 104.574 432.701 107.36 430.318C107.36 430.318 91.9554 448.986 94.3213 462.676C96.7047 476.349 121.836 485.236 124.167 491.844C126.498 498.452 126.305 503.992 126.305 503.992L128.583 503.922Z" fill="#5C87C7"/>
<path d="M102.137 437.68C97.0371 451.475 102.26 468.18 119.189 478.557C131.65 486.2 127.671 502.081 127.671 502.081L129.704 495.806C129.88 493.089 129.897 489.933 129.511 486.691C128.442 477.751 119.101 472.72 110.374 463.272C106.045 458.592 104.661 434.507 107.062 430.668C106.361 431.562 104.363 434.139 102.137 437.68Z" fill="#6A99DE"/>
<path opacity="0.56" d="M107.061 430.668C107.236 430.44 107.341 430.318 107.341 430.318C107.236 430.405 107.148 430.528 107.061 430.668Z" fill="#5C87C7"/>
<path d="M142.096 502.887C142.096 502.887 145.706 489.478 154.644 487.672C163.582 485.867 173.834 472.667 174.395 470.073C174.395 470.091 172.888 494.982 142.096 502.887Z" fill="#5C87C7"/>
<path d="M154.134 492.107C148.666 494.842 146.388 498.523 145.582 501.871C172.992 493.054 174.394 470.091 174.394 470.091C174.289 470.599 173.78 471.546 173.009 472.703C170.31 477.418 163.808 487.269 154.134 492.107Z" fill="#6A99DE"/>
<path d="M161.426 497.944H114.721L120.276 532.844C120.697 535.491 122.975 537.437 125.657 537.437H150.507C153.189 537.437 155.467 535.491 155.888 532.844L161.426 497.944Z" fill="#AFDDFD"/>
<path opacity="0.56" d="M150.104 497.944H114.703L115.614 503.711H149.175L144.549 532.844C144.128 535.491 141.85 537.437 139.168 537.437H150.49C153.171 537.437 155.45 535.491 155.87 532.844L161.426 497.944H150.104Z" fill="#5C87C7"/>
<path d="M496.264 435.717H285.137V478.662H496.264V435.717Z" fill="#C9515B"/>
<path opacity="0.29" d="M496.264 435.717H285.137V446.146H496.264V435.717Z" fill="#983F46"/>
<path d="M303.486 435.717H322.764L317.594 446.146H298.316L303.486 435.717Z" fill="#DB7D37"/>
<path d="M346.914 435.717H366.174L361.022 446.146H341.744L346.914 435.717Z" fill="#DB7D37"/>
<path d="M390.324 435.717H409.602L404.432 446.146H385.154L390.324 435.717Z" fill="#DB7D37"/>
<path d="M433.734 435.717H452.995L447.842 446.146H428.582L433.734 435.717Z" fill="#DB7D37"/>
<path d="M496.265 435.717V435.997L491.235 446.146H471.992L477.162 435.717H496.265Z" fill="#DB7D37"/>
<path d="M326.303 478.662H311.424V537.367H326.303V478.662Z" fill="#AFDDFD"/>
<path d="M471.133 478.662H456.254V537.367H471.133V478.662Z" fill="#AFDDFD"/>
<path d="M326.303 429.003H311.424V435.664H326.303V429.003Z" fill="#AFDDFD"/>
<path d="M471.133 429.003H456.254V435.664H471.133V429.003Z" fill="#AFDDFD"/>
<path opacity="0.56" d="M311.424 486.007H322.92V537.367H326.303V486.007V478.662V478.61H311.424V486.007Z" fill="#5C87C7"/>
<path opacity="0.56" d="M456.254 486.007H466.752V537.367H471.15V486.007V478.662V478.61H456.254V486.007Z" fill="#5C87C7"/>
<path opacity="0.56" d="M322.92 434.84H311.424V435.682H326.303V435.664V434.84V429.003H322.92V434.84Z" fill="#5C87C7"/>
<path opacity="0.56" d="M466.752 429.003V434.84H456.254V435.682H471.15V435.664V434.84V429.003H466.752Z" fill="#5C87C7"/>
<path d="M322.764 435.717L301.47 478.645H285.137V472.72L303.486 435.717H322.764Z" fill="white"/>
<path d="M346.914 435.717L325.621 478.645H344.881L366.175 435.717H346.914Z" fill="white"/>
<path d="M409.602 435.717L388.309 478.645H369.031L390.325 435.717H409.602Z" fill="white"/>
<path d="M452.993 435.717L431.717 478.645H412.439L433.733 435.717H452.993Z" fill="white"/>
<path d="M477.162 435.717L455.869 478.645H475.13L496.265 435.997L477.162 435.717Z" fill="white"/>
<path d="M322.764 435.717L317.594 446.146H298.316L303.486 435.717H322.764Z" fill="#E6F5FF"/>
<path d="M366.174 435.717L361.022 446.146H341.744L346.914 435.717H366.174Z" fill="#E6F5FF"/>
<path d="M409.602 435.717L404.432 446.146H385.154L390.324 435.717H409.602Z" fill="#E6F5FF"/>
<path d="M452.995 435.717L447.842 446.146H428.582L433.734 435.717H452.995Z" fill="#E6F5FF"/>
<path d="M496.265 435.997L491.235 446.146H471.992L477.162 435.717L496.265 435.997Z" fill="#E6F5FF"/>
<path d="M320.744 432.754C327.96 431.483 332.779 424.602 331.509 417.385C330.238 410.168 323.359 405.348 316.143 406.618C308.928 407.889 304.108 414.77 305.379 421.987C306.649 429.204 313.528 434.024 320.744 432.754Z" fill="#C9515B"/>
<path d="M324.481 419.695C324.481 416.365 321.782 413.683 318.47 413.683C315.158 413.683 312.459 416.382 312.459 419.695C312.459 423.026 315.158 425.707 318.47 425.707C321.782 425.707 324.481 423.008 324.481 419.695Z" fill="white"/>
<path d="M465.833 432.792C473.058 431.573 477.927 424.727 476.709 417.5C475.49 410.273 468.645 405.403 461.42 406.622C454.195 407.841 449.326 414.687 450.544 421.913C451.763 429.14 458.608 434.01 465.833 432.792Z" fill="#C9515B"/>
<path d="M469.626 419.695C469.626 416.365 466.927 413.683 463.615 413.683C460.302 413.683 457.604 416.382 457.604 419.695C457.604 423.026 460.302 425.707 463.615 425.707C466.927 425.707 469.626 423.008 469.626 419.695Z" fill="white"/>
<path d="M576.268 532.809H509.023L519.311 507.866V507.848L523.447 497.786L524.586 495.034L526.444 490.547L526.829 489.635L530.965 479.574L531.719 477.751L539.044 459.941C540.359 456.734 544.915 456.734 546.23 459.941L553.555 477.751L554.309 479.574L558.445 489.635L558.83 490.547L560.688 495.034L561.827 497.786L565.963 507.848V507.866L576.268 532.809Z" fill="#C9515B"/>
<path opacity="0.29" d="M513.422 522.117L509.023 532.809H576.268L571.869 522.117H513.422Z" fill="#983F46"/>
<path d="M580.666 526.411H503.643V537.297H580.666V526.411Z" fill="#AFDDFD"/>
<path opacity="0.56" d="M580.649 526.411H564.018V537.297H580.649V526.411Z" fill="#5C87C7"/>
<path opacity="0.29" d="M573.621 526.411H564.105L556.464 507.883V507.865L552.328 497.804L551.188 495.052L549.331 490.564L548.945 489.653L544.809 479.591L544.056 477.768L537.887 462.781L539.043 459.959C540.358 456.751 544.914 456.751 546.229 459.959L553.554 477.768L554.308 479.591L558.444 489.653L558.829 490.564L560.687 495.052L561.826 497.804L565.962 507.865V507.883L573.621 526.411Z" fill="#983F46"/>
<path d="M558.461 489.636H526.811L530.947 479.574H554.325L558.461 489.636Z" fill="white"/>
<path d="M565.981 507.866H519.311L523.447 497.804H561.845L565.981 507.866Z" fill="white"/>
<path d="M558.463 489.636H548.947L544.811 479.574H554.327L558.463 489.636Z" fill="#E6F5FF"/>
<path d="M565.98 507.866H556.464L552.328 497.804H561.844L565.98 507.866Z" fill="#E6F5FF"/>
<path d="M301.151 96C325.368 96 326.706 59.3149 302.516 58.1297C301.847 58.1028 301.178 58.0759 300.509 58.0759C296.201 58.0759 292.027 58.7762 288.12 60.0152C284.882 40.1643 267.757 25 247.1 25C225.987 25 208.568 40.8376 205.892 61.335C200.888 58.9108 195.269 57.5641 189.355 57.5641C186.037 57.5641 182.826 57.9951 179.776 58.7762C158.583 64.2709 163.052 95.9731 184.914 95.9731H301.151V96Z" fill="#AFDDFD"/>
<path d="M626.576 159C638.684 159 639.353 138.332 627.258 137.665C626.924 137.649 626.589 137.634 626.255 137.634C624.101 137.634 622.013 138.029 620.06 138.727C618.441 127.543 609.879 119 599.55 119C588.994 119 580.284 127.923 578.946 139.47C576.444 138.105 573.635 137.346 570.678 137.346C569.019 137.346 567.413 137.589 565.888 138.029C555.292 141.124 557.526 158.985 568.457 158.985H626.576V159Z" fill="#AFDDFD"/>
<path d="M170.013 193.712C175.043 193.712 179.407 190.066 180.091 185.088C180.213 184.194 180.283 183.282 180.283 182.353C180.283 171.275 171.293 162.283 160.217 162.283C159.761 162.283 159.305 162.3 158.867 162.335C157.956 151.397 148.79 142.808 137.627 142.808C125.85 142.808 116.316 152.361 116.316 164.123C116.316 164.649 116.333 165.158 116.386 165.683C113.039 163.808 109.148 162.826 105.012 163.001C94.304 163.492 85.5063 172.064 84.7527 182.757C84.7527 182.844 84.7352 182.932 84.7352 183.019C84.3846 188.839 89.099 193.712 94.9174 193.712H170.013Z" fill="#AFDDFD"/>
<path d="M315.001 261.882C326.21 261.882 335.296 252.198 335.296 240.251C335.296 228.305 326.21 218.621 315.001 218.621C303.793 218.621 294.707 228.305 294.707 240.251C294.707 252.198 303.793 261.882 315.001 261.882Z" fill="#3F454C"/>
<path d="M311.846 252.89C315.65 252.89 318.734 249.335 318.734 244.949C318.734 240.564 315.65 237.009 311.846 237.009C308.043 237.009 304.959 240.564 304.959 244.949C304.959 249.335 308.043 252.89 311.846 252.89Z" fill="white"/>
<path d="M405.449 272.873C416.657 272.873 425.743 263.188 425.743 251.242C425.743 239.296 416.657 229.611 405.449 229.611C394.24 229.611 385.154 239.296 385.154 251.242C385.154 263.188 394.24 272.873 405.449 272.873Z" fill="#3F454C"/>
<path d="M410.514 317.782C409.462 317.782 408.411 317.431 407.552 316.713C396.581 307.563 383.998 300.779 370.153 296.554C359.024 293.171 347.055 291.401 334.577 291.331C313.283 291.191 297.878 296.028 297.738 296.081C295.302 296.852 292.709 295.52 291.937 293.084C291.166 290.647 292.498 288.053 294.934 287.282C295.6 287.071 311.461 282.093 333.718 282.093C334.016 282.093 334.331 282.093 334.647 282.093C348.036 282.181 360.882 284.074 372.869 287.72C387.906 292.295 401.576 299.675 413.493 309.613C415.456 311.244 415.719 314.171 414.089 316.134C413.16 317.221 411.846 317.782 410.514 317.782Z" fill="#3F454C"/>
<path d="M403.626 264.056C407.43 264.056 410.513 260.501 410.513 256.115C410.513 251.73 407.43 248.175 403.626 248.175C399.822 248.175 396.738 251.73 396.738 256.115C396.738 260.501 399.822 264.056 403.626 264.056Z" fill="white"/>
</svg>
