<?xml version="1.0" encoding="utf-8"?>
<!-- Generator: Adobe Illustrator 25.0.0, SVG Export Plug-In . SVG Version: 6.00 Build 0)  -->
<svg version="1.1" id="Layer_1" xmlns="http://www.w3.org/2000/svg" xmlns:xlink="http://www.w3.org/1999/xlink" x="0px" y="0px"
	 viewBox="0 0 256 256" style="enable-background:new 0 0 256 256;" xml:space="preserve">
<style type="text/css">
	.st0{fill:none;stroke:#7EB3FF;stroke-width:7.3136;}
	.st1{fill:#0095FF;}
	.st2{fill:#C5E1F9;}
	.st3{fill:#9AC7F7;}
	.st4{fill:#7EB3FF;}
	.st5{fill:none;stroke:#0561FC;stroke-width:7.355;}
	.st6{fill:#0561FC;}
	.st7{fill:none;stroke:#FFFFFF;stroke-width:8.3727;}
	.st8{fill:#EDF5FF;}
	.st9{fill:#D7E9FF;}
	.st10{fill:#006EFF;}
	.st11{fill:#80AEF8;}
	.st12{fill:#FFF5F5;}
	.st13{fill:#E3E7EA;}
	.st14{fill:#E3F3FF;}
	.st15{fill:none;stroke:#7EB3FF;stroke-width:7.1249;}
	.st16{fill:#606060;}
	.st17{fill:none;stroke:#0561FC;stroke-width:7.1653;}
	.st18{fill:none;stroke:#FFFFFF;stroke-width:6.7779;}
</style>
<g>
	<g id="Docs_2_">
		<g>
			<g>
				<g>
					<g>
						<path class="st1" d="M207.2,85.2l-37.1-10.6l-10.6-37.1H85.2c-8.8,0-15.9,7.1-15.9,15.9v149.2c0,8.8,7.1,15.9,15.9,15.9h106.1
							c8.8,0,15.9-7.1,15.9-15.9V85.2z"/>
					</g>
				</g>
			</g>
		</g>
		<path class="st10" d="M207.2,85.2v117.4c0,8.8-7.1,15.9-15.9,15.9h-53v-181h21.2l10.6,37.1L207.2,85.2z"/>
		<path class="st11" d="M207.2,85.2h-37.1c-5.8,0-10.6-4.8-10.6-10.6V37.5c1.4,0,2.8,0.5,3.7,1.6l42.4,42.4
			C206.7,82.5,207.2,83.8,207.2,85.2z"/>
		<g>
			<path class="st12" d="M170.1,122.7h-63.6c-2.9,0-5.3-2.4-5.3-5.3s2.4-5.3,5.3-5.3h63.6c2.9,0,5.3,2.4,5.3,5.3
				S173,122.7,170.1,122.7z"/>
		</g>
		<g>
			<path class="st12" d="M170.1,143.9h-63.6c-2.9,0-5.3-2.4-5.3-5.3s2.4-5.3,5.3-5.3h63.6c2.9,0,5.3,2.4,5.3,5.3
				S173,143.9,170.1,143.9z"/>
		</g>
		<g>
			<path class="st12" d="M170.1,165.1h-63.6c-2.9,0-5.3-2.4-5.3-5.3s2.4-5.3,5.3-5.3h63.6c2.9,0,5.3,2.4,5.3,5.3
				S173,165.1,170.1,165.1z"/>
		</g>
		<g>
			<path class="st12" d="M148.9,186.3h-42.4c-2.9,0-5.3-2.4-5.3-5.3s2.4-5.3,5.3-5.3h42.4c2.9,0,5.3,2.4,5.3,5.3
				S151.8,186.3,148.9,186.3z"/>
		</g>
	</g>
	<g id="Docs_1_">
		<g>
			<g>
				<path class="st13" d="M138.3,186.3h10.6c2.9,0,5.3-2.4,5.3-5.3s-2.4-5.3-5.3-5.3h-10.6V186.3z"/>
			</g>
			<g>
				<path class="st13" d="M138.3,165.1h31.8c2.9,0,5.3-2.4,5.3-5.3s-2.4-5.3-5.3-5.3h-31.8V165.1z"/>
			</g>
			<g>
				<path class="st13" d="M138.3,143.9h31.8c2.9,0,5.3-2.4,5.3-5.3s-2.4-5.3-5.3-5.3h-31.8V143.9z"/>
			</g>
			<g>
				<path class="st13" d="M138.3,122.7h31.8c2.9,0,5.3-2.4,5.3-5.3s-2.4-5.3-5.3-5.3h-31.8V122.7z"/>
			</g>
		</g>
	</g>
</g>
</svg>
